STARTFONT 2.1
FONT -ADECW-Screen-Medium-R-Normal--14-140-75-75-P-70-TIS620.2533-1
SIZE 14 75 75
FONTBOUNDINGBOX 13 14 -6 -2

STARTPROPERTIES 26
FONTNAME_REGISTRY ""
FAMILY_NAME "Screen"
FOUNDRY "ADECW"
WEIGHT_NAME "Medium"
SLANT "R"
SETWIDTH_NAME "Normal"
ADD_STYLE_NAME ""
PIXEL_SIZE 14
POINT_SIZE 140
RESOLUTION_X 75
RESOLUTION_Y 75
SPACING "P"
AVERAGE_WIDTH 70
CHARSET_REGISTRY "TIS620.2533"
CHARSET_ENCODING "1"
DEVICE_FONT_NAME "Screen-TIS620.2533-1"
CHARSET_COLLECTIONS "TIS620.2533-1"
FULL_NAME "Screen TIS620.2533-1"
COPYRIGHT "Copyright (c) 1992 Digital Equipment Corporation"
CAP_HEIGHT 10
X_HEIGHT 7
WEIGHT 10
QUAD_WIDTH 3
DEFAULT_CHAR 32
FONT_DESCENT 2
FONT_ASCENT 12
ENDPROPERTIES

CHARS 185

STARTCHAR C20
ENCODING 32
SWIDTH 480 0
DWIDTH 7 0
BBX 7 14 0 -2
BITMAP
00
00
00
00
00
00
00
00
00
00
00
00
00
00
ENDCHAR

STARTCHAR C21
ENCODING 33
SWIDTH 480 0
DWIDTH 7 0
BBX 7 14 0 -2
BITMAP
00
00
10
10
10
10
10
10
10
00
10
10
00
00
ENDCHAR

STARTCHAR C22
ENCODING 34
SWIDTH 480 0
DWIDTH 7 0
BBX 7 14 0 -2
BITMAP
00
00
50
50
50
00
00
00
00
00
00
00
00
00
ENDCHAR

STARTCHAR C23
ENCODING 35
SWIDTH 480 0
DWIDTH 7 0
BBX 7 14 0 -2
BITMAP
00
00
48
48
48
FC
48
48
FC
48
48
48
00
00
ENDCHAR

STARTCHAR C24
ENCODING 36
SWIDTH 480 0
DWIDTH 7 0
BBX 7 14 0 -2
BITMAP
00
10
38
54
54
50
30
18
14
54
54
38
10
00
ENDCHAR

STARTCHAR C25
ENCODING 37
SWIDTH 480 0
DWIDTH 7 0
BBX 7 14 0 -2
BITMAP
00
00
44
A4
A8
48
10
20
48
54
94
88
00
00
ENDCHAR

STARTCHAR C26
ENCODING 38
SWIDTH 480 0
DWIDTH 7 0
BBX 7 14 0 -2
BITMAP
00
00
20
50
50
64
24
64
98
88
88
74
00
00
ENDCHAR

STARTCHAR C27
ENCODING 39
SWIDTH 480 0
DWIDTH 7 0
BBX 7 14 0 -2
BITMAP
00
00
20
20
40
00
00
00
00
00
00
00
00
00
ENDCHAR

STARTCHAR C28
ENCODING 40
SWIDTH 480 0
DWIDTH 7 0
BBX 7 14 0 -2
BITMAP
00
08
10
10
20
20
20
20
20
20
10
10
08
00
ENDCHAR

STARTCHAR C29
ENCODING 41
SWIDTH 480 0
DWIDTH 7 0
BBX 7 14 0 -2
BITMAP
00
40
20
20
10
10
10
10
10
10
20
20
40
00
ENDCHAR

STARTCHAR C2a
ENCODING 42
SWIDTH 480 0
DWIDTH 7 0
BBX 7 14 0 -2
BITMAP
00
00
00
00
10
54
38
10
38
54
10
00
00
00
ENDCHAR

STARTCHAR C2b
ENCODING 43
SWIDTH 480 0
DWIDTH 7 0
BBX 7 14 0 -2
BITMAP
00
00
00
10
10
10
10
7C
10
10
10
10
00
00
ENDCHAR

STARTCHAR C2c
ENCODING 44
SWIDTH 480 0
DWIDTH 7 0
BBX 7 14 0 -2
BITMAP
00
00
00
00
00
00
00
00
00
00
30
30
20
40
ENDCHAR

STARTCHAR C2d
ENCODING 45
SWIDTH 480 0
DWIDTH 7 0
BBX 7 14 0 -2
BITMAP
00
00
00
00
00
00
00
7C
00
00
00
00
00
00
ENDCHAR

STARTCHAR C2e
ENCODING 46
SWIDTH 480 0
DWIDTH 7 0
BBX 7 14 0 -2
BITMAP
00
00
00
00
00
00
00
00
00
00
30
30
00
00
ENDCHAR

STARTCHAR C2f
ENCODING 47
SWIDTH 480 0
DWIDTH 7 0
BBX 7 14 0 -2
BITMAP
00
00
04
04
08
08
10
20
40
40
80
80
00
00
ENDCHAR

STARTCHAR C30
ENCODING 48
SWIDTH 480 0
DWIDTH 7 0
BBX 7 14 0 -2
BITMAP
00
00
30
48
48
48
48
48
48
48
48
30
00
00
ENDCHAR

STARTCHAR C31
ENCODING 49
SWIDTH 480 0
DWIDTH 7 0
BBX 7 14 0 -2
BITMAP
00
00
30
50
10
10
10
10
10
10
10
7C
00
00
ENDCHAR

STARTCHAR C32
ENCODING 50
SWIDTH 480 0
DWIDTH 7 0
BBX 7 14 0 -2
BITMAP
00
00
30
48
48
08
08
10
10
20
40
78
00
00
ENDCHAR

STARTCHAR C33
ENCODING 51
SWIDTH 480 0
DWIDTH 7 0
BBX 7 14 0 -2
BITMAP
00
00
30
48
08
08
30
08
08
48
48
30
00
00
ENDCHAR

STARTCHAR C34
ENCODING 52
SWIDTH 480 0
DWIDTH 7 0
BBX 7 14 0 -2
BITMAP
00
00
08
08
18
28
28
48
48
7C
08
08
00
00
ENDCHAR

STARTCHAR C35
ENCODING 53
SWIDTH 480 0
DWIDTH 7 0
BBX 7 14 0 -2
BITMAP
00
00
78
40
40
70
48
08
08
48
48
30
00
00
ENDCHAR

STARTCHAR C36
ENCODING 54
SWIDTH 480 0
DWIDTH 7 0
BBX 7 14 0 -2
BITMAP
00
00
30
48
48
40
70
48
48
48
48
30
00
00
ENDCHAR

STARTCHAR C37
ENCODING 55
SWIDTH 480 0
DWIDTH 7 0
BBX 7 14 0 -2
BITMAP
00
00
7C
44
44
08
08
08
10
10
10
10
00
00
ENDCHAR

STARTCHAR C38
ENCODING 56
SWIDTH 480 0
DWIDTH 7 0
BBX 7 14 0 -2
BITMAP
00
00
30
48
48
48
30
48
48
48
48
30
00
00
ENDCHAR

STARTCHAR C39
ENCODING 57
SWIDTH 480 0
DWIDTH 7 0
BBX 7 14 0 -2
BITMAP
00
00
30
48
48
48
48
38
08
48
48
30
00
00
ENDCHAR

STARTCHAR C3a
ENCODING 58
SWIDTH 480 0
DWIDTH 7 0
BBX 7 14 0 -2
BITMAP
00
00
00
30
30
00
00
00
00
00
30
30
00
00
ENDCHAR

STARTCHAR C3b
ENCODING 59
SWIDTH 480 0
DWIDTH 7 0
BBX 7 14 0 -2
BITMAP
00
00
00
30
30
00
00
00
00
00
30
30
20
40
ENDCHAR

STARTCHAR C3c
ENCODING 60
SWIDTH 480 0
DWIDTH 7 0
BBX 7 14 0 -2
BITMAP
00
00
00
04
08
10
20
40
20
10
08
04
00
00
ENDCHAR

STARTCHAR C3d
ENCODING 61
SWIDTH 480 0
DWIDTH 7 0
BBX 7 14 0 -2
BITMAP
00
00
00
00
00
7C
00
00
00
7C
00
00
00
00
ENDCHAR

STARTCHAR C3e
ENCODING 62
SWIDTH 480 0
DWIDTH 7 0
BBX 7 14 0 -2
BITMAP
00
00
00
40
20
10
08
04
08
10
20
40
00
00
ENDCHAR

STARTCHAR C3f
ENCODING 63
SWIDTH 480 0
DWIDTH 7 0
BBX 7 14 0 -2
BITMAP
00
00
38
44
44
44
08
10
10
00
10
10
00
00
ENDCHAR

STARTCHAR C40
ENCODING 64
SWIDTH 480 0
DWIDTH 7 0
BBX 7 14 0 -2
BITMAP
00
00
30
48
94
AC
A4
A4
AC
94
40
30
00
00
ENDCHAR

STARTCHAR C41
ENCODING 65
SWIDTH 480 0
DWIDTH 7 0
BBX 7 14 0 -2
BITMAP
00
00
30
30
48
48
84
FC
84
84
84
84
00
00
ENDCHAR

STARTCHAR C42
ENCODING 66
SWIDTH 480 0
DWIDTH 7 0
BBX 7 14 0 -2
BITMAP
00
00
F8
84
84
88
F0
88
84
84
84
F8
00
00
ENDCHAR

STARTCHAR C43
ENCODING 67
SWIDTH 480 0
DWIDTH 7 0
BBX 7 14 0 -2
BITMAP
00
00
30
48
84
80
80
80
80
84
48
30
00
00
ENDCHAR

STARTCHAR C44
ENCODING 68
SWIDTH 480 0
DWIDTH 7 0
BBX 7 14 0 -2
BITMAP
00
00
F0
88
84
84
84
84
84
84
88
F0
00
00
ENDCHAR

STARTCHAR C45
ENCODING 69
SWIDTH 480 0
DWIDTH 7 0
BBX 7 14 0 -2
BITMAP
00
00
FC
80
80
80
F8
80
80
80
80
FC
00
00
ENDCHAR

STARTCHAR C46
ENCODING 70
SWIDTH 480 0
DWIDTH 7 0
BBX 7 14 0 -2
BITMAP
00
00
FC
80
80
80
F8
80
80
80
80
80
00
00
ENDCHAR

STARTCHAR C47
ENCODING 71
SWIDTH 480 0
DWIDTH 7 0
BBX 7 14 0 -2
BITMAP
00
00
30
48
84
80
80
9C
84
84
48
30
00
00
ENDCHAR

STARTCHAR C48
ENCODING 72
SWIDTH 480 0
DWIDTH 7 0
BBX 7 14 0 -2
BITMAP
00
00
84
84
84
84
FC
84
84
84
84
84
00
00
ENDCHAR

STARTCHAR C49
ENCODING 73
SWIDTH 480 0
DWIDTH 7 0
BBX 7 14 0 -2
BITMAP
00
00
38
10
10
10
10
10
10
10
10
38
00
00
ENDCHAR

STARTCHAR C4a
ENCODING 74
SWIDTH 480 0
DWIDTH 7 0
BBX 7 14 0 -2
BITMAP
00
00
3C
08
08
08
08
08
08
48
48
30
00
00
ENDCHAR

STARTCHAR C4b
ENCODING 75
SWIDTH 480 0
DWIDTH 7 0
BBX 7 14 0 -2
BITMAP
00
00
84
88
90
A0
D0
90
88
88
84
84
00
00
ENDCHAR

STARTCHAR C4c
ENCODING 76
SWIDTH 480 0
DWIDTH 7 0
BBX 7 14 0 -2
BITMAP
00
00
80
80
80
80
80
80
80
80
80
FC
00
00
ENDCHAR

STARTCHAR C4d
ENCODING 77
SWIDTH 480 0
DWIDTH 7 0
BBX 7 14 0 -2
BITMAP
00
00
84
84
CC
CC
B4
B4
84
84
84
84
00
00
ENDCHAR

STARTCHAR C4e
ENCODING 78
SWIDTH 480 0
DWIDTH 7 0
BBX 7 14 0 -2
BITMAP
00
00
84
C4
C4
A4
A4
94
94
8C
8C
84
00
00
ENDCHAR

STARTCHAR C4f
ENCODING 79
SWIDTH 480 0
DWIDTH 7 0
BBX 7 14 0 -2
BITMAP
00
00
30
48
84
84
84
84
84
84
48
30
00
00
ENDCHAR

STARTCHAR C50
ENCODING 80
SWIDTH 480 0
DWIDTH 7 0
BBX 7 14 0 -2
BITMAP
00
00
F0
88
84
84
88
F0
80
80
80
80
00
00
ENDCHAR

STARTCHAR C51
ENCODING 81
SWIDTH 480 0
DWIDTH 7 0
BBX 7 14 0 -2
BITMAP
00
00
30
48
84
84
84
84
84
94
48
38
04
00
ENDCHAR

STARTCHAR C52
ENCODING 82
SWIDTH 480 0
DWIDTH 7 0
BBX 7 14 0 -2
BITMAP
00
00
F0
88
84
84
88
F0
88
88
84
84
00
00
ENDCHAR

STARTCHAR C53
ENCODING 83
SWIDTH 480 0
DWIDTH 7 0
BBX 7 14 0 -2
BITMAP
00
00
78
84
84
80
70
08
04
84
84
78
00
00
ENDCHAR

STARTCHAR C54
ENCODING 84
SWIDTH 480 0
DWIDTH 7 0
BBX 7 14 0 -2
BITMAP
00
00
7C
10
10
10
10
10
10
10
10
10
00
00
ENDCHAR

STARTCHAR C55
ENCODING 85
SWIDTH 480 0
DWIDTH 7 0
BBX 7 14 0 -2
BITMAP
00
00
84
84
84
84
84
84
84
84
48
30
00
00
ENDCHAR

STARTCHAR C56
ENCODING 86
SWIDTH 480 0
DWIDTH 7 0
BBX 7 14 0 -2
BITMAP
00
00
84
84
84
84
48
48
48
48
30
30
00
00
ENDCHAR

STARTCHAR C57
ENCODING 87
SWIDTH 480 0
DWIDTH 7 0
BBX 7 14 0 -2
BITMAP
00
00
84
84
84
84
84
B4
B4
48
48
48
00
00
ENDCHAR

STARTCHAR C58
ENCODING 88
SWIDTH 480 0
DWIDTH 7 0
BBX 7 14 0 -2
BITMAP
00
00
84
84
48
48
30
30
48
48
84
84
00
00
ENDCHAR

STARTCHAR C59
ENCODING 89
SWIDTH 480 0
DWIDTH 7 0
BBX 7 14 0 -2
BITMAP
00
00
44
44
28
28
10
10
10
10
10
10
00
00
ENDCHAR

STARTCHAR C5a
ENCODING 90
SWIDTH 480 0
DWIDTH 7 0
BBX 7 14 0 -2
BITMAP
00
00
FC
04
08
10
10
20
20
40
80
FC
00
00
ENDCHAR

STARTCHAR C5b
ENCODING 91
SWIDTH 480 0
DWIDTH 7 0
BBX 7 14 0 -2
BITMAP
00
1C
10
10
10
10
10
10
10
10
10
10
1C
00
ENDCHAR

STARTCHAR C5c
ENCODING 92
SWIDTH 480 0
DWIDTH 7 0
BBX 7 14 0 -2
BITMAP
00
00
80
80
40
40
20
10
08
08
04
04
00
00
ENDCHAR

STARTCHAR C5d
ENCODING 93
SWIDTH 480 0
DWIDTH 7 0
BBX 7 14 0 -2
BITMAP
00
70
10
10
10
10
10
10
10
10
10
10
70
00
ENDCHAR

STARTCHAR C5e
ENCODING 94
SWIDTH 480 0
DWIDTH 7 0
BBX 7 14 0 -2
BITMAP
00
00
10
28
44
00
00
00
00
00
00
00
00
00
ENDCHAR

STARTCHAR C5f
ENCODING 95
SWIDTH 480 0
DWIDTH 7 0
BBX 7 14 0 -2
BITMAP
00
00
00
00
00
00
00
00
00
00
00
00
FC
00
ENDCHAR

STARTCHAR C60
ENCODING 96
SWIDTH 480 0
DWIDTH 7 0
BBX 7 14 0 -2
BITMAP
00
00
40
40
20
00
00
00
00
00
00
00
00
00
ENDCHAR

STARTCHAR C61
ENCODING 97
SWIDTH 480 0
DWIDTH 7 0
BBX 7 14 0 -2
BITMAP
00
00
00
00
00
38
44
04
3C
44
4C
34
00
00
ENDCHAR

STARTCHAR C62
ENCODING 98
SWIDTH 480 0
DWIDTH 7 0
BBX 7 14 0 -2
BITMAP
00
00
40
40
40
58
64
44
44
44
64
58
00
00
ENDCHAR

STARTCHAR C63
ENCODING 99
SWIDTH 480 0
DWIDTH 7 0
BBX 7 14 0 -2
BITMAP
00
00
00
00
00
38
44
40
40
40
44
38
00
00
ENDCHAR

STARTCHAR C64
ENCODING 100
SWIDTH 480 0
DWIDTH 7 0
BBX 7 14 0 -2
BITMAP
00
00
04
04
04
34
4C
44
44
44
4C
34
00
00
ENDCHAR

STARTCHAR C65
ENCODING 101
SWIDTH 480 0
DWIDTH 7 0
BBX 7 14 0 -2
BITMAP
00
00
00
00
00
38
44
44
7C
40
40
38
00
00
ENDCHAR

STARTCHAR C66
ENCODING 102
SWIDTH 480 0
DWIDTH 7 0
BBX 7 14 0 -2
BITMAP
00
00
0C
10
10
10
7C
10
10
10
10
10
00
00
ENDCHAR

STARTCHAR C67
ENCODING 103
SWIDTH 480 0
DWIDTH 7 0
BBX 7 14 0 -2
BITMAP
00
00
00
00
00
34
48
58
20
78
84
84
78
00
ENDCHAR

STARTCHAR C68
ENCODING 104
SWIDTH 480 0
DWIDTH 7 0
BBX 7 14 0 -2
BITMAP
00
00
40
40
40
58
64
44
44
44
44
44
00
00
ENDCHAR

STARTCHAR C69
ENCODING 105
SWIDTH 480 0
DWIDTH 7 0
BBX 7 14 0 -2
BITMAP
00
00
10
10
00
00
10
10
10
10
10
10
00
00
ENDCHAR

STARTCHAR C6a
ENCODING 106
SWIDTH 480 0
DWIDTH 7 0
BBX 7 14 0 -2
BITMAP
00
00
08
08
00
00
08
08
08
08
48
48
30
00
ENDCHAR

STARTCHAR C6b
ENCODING 107
SWIDTH 480 0
DWIDTH 7 0
BBX 7 14 0 -2
BITMAP
00
00
40
40
40
44
48
50
60
50
48
44
00
00
ENDCHAR

STARTCHAR C6c
ENCODING 108
SWIDTH 480 0
DWIDTH 7 0
BBX 7 14 0 -2
BITMAP
00
00
30
10
10
10
10
10
10
10
10
10
00
00
ENDCHAR

STARTCHAR C6d
ENCODING 109
SWIDTH 480 0
DWIDTH 7 0
BBX 7 14 0 -2
BITMAP
00
00
00
00
00
28
54
54
54
54
54
54
00
00
ENDCHAR

STARTCHAR C6e
ENCODING 110
SWIDTH 480 0
DWIDTH 7 0
BBX 7 14 0 -2
BITMAP
00
00
00
00
00
58
64
44
44
44
44
44
00
00
ENDCHAR

STARTCHAR C6f
ENCODING 111
SWIDTH 480 0
DWIDTH 7 0
BBX 7 14 0 -2
BITMAP
00
00
00
00
00
38
44
44
44
44
44
38
00
00
ENDCHAR

STARTCHAR C70
ENCODING 112
SWIDTH 480 0
DWIDTH 7 0
BBX 7 14 0 -2
BITMAP
00
00
00
00
00
58
64
44
44
64
58
40
40
00
ENDCHAR

STARTCHAR C71
ENCODING 113
SWIDTH 480 0
DWIDTH 7 0
BBX 7 14 0 -2
BITMAP
00
00
00
00
00
34
4C
44
44
4C
34
04
04
00
ENDCHAR

STARTCHAR C72
ENCODING 114
SWIDTH 480 0
DWIDTH 7 0
BBX 7 14 0 -2
BITMAP
00
00
00
00
00
4C
54
60
40
40
40
40
00
00
ENDCHAR

STARTCHAR C73
ENCODING 115
SWIDTH 480 0
DWIDTH 7 0
BBX 7 14 0 -2
BITMAP
00
00
00
00
00
38
44
40
38
04
44
38
00
00
ENDCHAR

STARTCHAR C74
ENCODING 116
SWIDTH 480 0
DWIDTH 7 0
BBX 7 14 0 -2
BITMAP
00
00
00
20
20
78
20
20
20
20
28
10
00
00
ENDCHAR

STARTCHAR C75
ENCODING 117
SWIDTH 480 0
DWIDTH 7 0
BBX 7 14 0 -2
BITMAP
00
00
00
00
00
44
44
44
44
44
4C
34
00
00
ENDCHAR

STARTCHAR C76
ENCODING 118
SWIDTH 480 0
DWIDTH 7 0
BBX 7 14 0 -2
BITMAP
00
00
00
00
00
44
44
44
28
28
10
10
00
00
ENDCHAR

STARTCHAR C77
ENCODING 119
SWIDTH 480 0
DWIDTH 7 0
BBX 7 14 0 -2
BITMAP
00
00
00
00
00
44
54
54
54
54
54
28
00
00
ENDCHAR

STARTCHAR C78
ENCODING 120
SWIDTH 480 0
DWIDTH 7 0
BBX 7 14 0 -2
BITMAP
00
00
00
00
00
44
28
28
10
28
28
44
00
00
ENDCHAR

STARTCHAR C79
ENCODING 121
SWIDTH 480 0
DWIDTH 7 0
BBX 7 14 0 -2
BITMAP
00
00
00
00
00
44
44
44
44
3C
04
44
38
00
ENDCHAR

STARTCHAR C7a
ENCODING 122
SWIDTH 480 0
DWIDTH 7 0
BBX 7 14 0 -2
BITMAP
00
00
00
00
00
7C
04
08
10
20
40
7C
00
00
ENDCHAR

STARTCHAR C7b
ENCODING 123
SWIDTH 480 0
DWIDTH 7 0
BBX 7 14 0 -2
BITMAP
00
08
10
20
20
20
10
60
10
20
20
20
10
08
ENDCHAR

STARTCHAR C7c
ENCODING 124
SWIDTH 480 0
DWIDTH 7 0
BBX 7 14 0 -2
BITMAP
00
00
10
10
10
10
00
00
00
10
10
10
10
00
ENDCHAR

STARTCHAR C7d
ENCODING 125
SWIDTH 480 0
DWIDTH 7 0
BBX 7 14 0 -2
BITMAP
00
40
20
10
10
10
20
18
20
10
10
10
20
40
ENDCHAR

STARTCHAR C7e
ENCODING 126
SWIDTH 480 0
DWIDTH 7 0
BBX 7 14 0 -2
BITMAP
00
64
98
00
00
00
00
00
00
00
00
00
00
00
ENDCHAR

STARTCHAR C7f
ENCODING 127
SWIDTH 480 0
DWIDTH 7 0
BBX 7 14 0 -2
BITMAP
00
00
00
00
00
00
00
00
00
00
00
00
00
00
ENDCHAR

STARTCHAR NO_BREAK_SPACE
ENCODING 160
SWIDTH 0 0
DWIDTH 0 0
BBX 1 1 0 0
BITMAP
00
ENDCHAR

STARTCHAR KOKAI
ENCODING 161
SWIDTH 480 0
DWIDTH 7 0
BBX 5 6 1 0
BITMAP
70
88
48
88
88
88
ENDCHAR

STARTCHAR KHOKHAI
ENCODING 162
SWIDTH 480 0
DWIDTH 7 0
BBX 4 6 2 0
BITMAP
90
50
50
90
90
60
ENDCHAR

STARTCHAR KHOKHUAT
ENCODING 163
SWIDTH 480 0
DWIDTH 7 0
BBX 5 6 1 0
BITMAP
A8
68
28
48
48
30
ENDCHAR

STARTCHAR KHOKHWAI
ENCODING 164
SWIDTH 480 0
DWIDTH 7 0
BBX 6 6 1 0
BITMAP
78
84
84
B4
D4
84
ENDCHAR

STARTCHAR KHOKHON
ENCODING 165
SWIDTH 480 0
DWIDTH 7 0
BBX 6 6 1 0
BITMAP
58
A4
84
B4
D4
84
ENDCHAR

STARTCHAR KHORAKHANG
ENCODING 166
SWIDTH 480 0
DWIDTH 7 0
BBX 6 6 1 0
BITMAP
A4
64
24
64
BC
44
ENDCHAR

STARTCHAR NGONGU
ENCODING 167
SWIDTH 480 0
DWIDTH 6 0
BBX 4 6 2 0
BITMAP
20
10
90
50
30
10
ENDCHAR

STARTCHAR CHOCHAN
ENCODING 168
SWIDTH 480 0
DWIDTH 7 0
BBX 5 6 1 0
BITMAP
70
88
08
68
18
08
ENDCHAR

STARTCHAR CHOCHING
ENCODING 169
SWIDTH 480 0
DWIDTH 7 0
BBX 6 6 1 0
BITMAP
70
88
08
68
34
28
ENDCHAR

STARTCHAR CHOCHANG
ENCODING 170
SWIDTH 480 0
DWIDTH 7 0
BBX 4 8 2 0
BITMAP
10
10
A0
50
90
90
90
60
ENDCHAR

STARTCHAR SOSO
ENCODING 171
SWIDTH 480 0
DWIDTH 7 0
BBX 5 8 1 0
BITMAP
08
08
B0
68
28
48
48
30
ENDCHAR

STARTCHAR CHOCHOE
ENCODING 172
SWIDTH 480 0
DWIDTH 7 0
BBX 6 6 1 0
BITMAP
64
94
54
94
AC
54
ENDCHAR

STARTCHAR YOYING
ENCODING 173
SWIDTH 480 0
DWIDTH 7 0
BBX 6 8 1 -2
BITMAP
64
94
54
94
94
5C
04
18
ENDCHAR

STARTCHAR DOCHADA
ENCODING 174
SWIDTH 480 0
DWIDTH 7 0
BBX 6 8 1 -2
BITMAP
38
44
24
44
44
84
0C
14
ENDCHAR

STARTCHAR TOPATAK
ENCODING 175
SWIDTH 480 0
DWIDTH 7 0
BBX 6 8 1 -2
BITMAP
38
44
24
44
44
84
14
28
ENDCHAR

STARTCHAR THOTHAN
ENCODING 176
SWIDTH 480 0
DWIDTH 7 0
BBX 5 8 1 -2
BITMAP
78
F0
08
68
18
08
A0
58
ENDCHAR

STARTCHAR THONANGMONTHO
ENCODING 177
SWIDTH 480 0
DWIDTH 7 0
BBX 6 6 1 0
BITMAP
A8
74
24
44
44
44
ENDCHAR

STARTCHAR THOPHUTHAO
ENCODING 178
SWIDTH 480 0
DWIDTH 7 0
BBX 7 6 0 0
BITMAP
52
AA
8A
EA
D6
8A
ENDCHAR

STARTCHAR NONEN
ENCODING 179
SWIDTH 480 0
DWIDTH 7 0
BBX 6 6 1 0
BITMAP
74
94
54
94
AC
54
ENDCHAR

STARTCHAR DODEK
ENCODING 180
SWIDTH 480 0
DWIDTH 7 0
BBX 6 6 1 0
BITMAP
78
84
B4
94
A4
C4
ENDCHAR

STARTCHAR TOTAO
ENCODING 181
SWIDTH 480 0
DWIDTH 7 0
BBX 6 6 1 0
BITMAP
68
94
B4
94
A4
C4
ENDCHAR

STARTCHAR THOTHUNG
ENCODING 182
SWIDTH 480 0
DWIDTH 7 0
BBX 5 6 1 0
BITMAP
70
88
48
88
88
48
ENDCHAR

STARTCHAR THOTHAHAN
ENCODING 183
SWIDTH 480 0
DWIDTH 7 0
BBX 6 6 1 0
BITMAP
88
54
54
64
44
44
ENDCHAR

STARTCHAR THOTHONG
ENCODING 184
SWIDTH 480 0
DWIDTH 7 0
BBX 5 6 1 0
BITMAP
78
F0
48
48
48
30
ENDCHAR

STARTCHAR NONU
ENCODING 185
SWIDTH 480 0
DWIDTH 7 0
BBX 6 6 1 0
BITMAP
88
48
48
48
54
28
ENDCHAR

STARTCHAR BOBAIMAI
ENCODING 186
SWIDTH 480 0
DWIDTH 7 0
BBX 6 6 1 0
BITMAP
84
44
44
44
44
38
ENDCHAR

STARTCHAR POPLA
ENCODING 187
SWIDTH 480 0
DWIDTH 7 0
BBX 6 8 1 0
BITMAP
04
04
84
44
44
44
44
38
ENDCHAR

STARTCHAR PHOPUENG
ENCODING 188
SWIDTH 480 0
DWIDTH 7 0
BBX 5 6 1 0
BITMAP
48
88
88
A8
A8
50
ENDCHAR

STARTCHAR FOFA
ENCODING 189
SWIDTH 480 0
DWIDTH 7 0
BBX 5 8 1 0
BITMAP
08
08
48
88
88
A8
A8
50
ENDCHAR

STARTCHAR PHOPHAN
ENCODING 190
SWIDTH 480 0
DWIDTH 7 0
BBX 6 6 1 0
BITMAP
84
44
44
54
54
28
ENDCHAR

STARTCHAR FOFAN
ENCODING 191
SWIDTH 480 0
DWIDTH 7 0
BBX 6 8 1 0
BITMAP
04
04
84
44
44
54
54
28
ENDCHAR

STARTCHAR PHOSAMPHAO
ENCODING 192
SWIDTH 480 0
DWIDTH 7 0
BBX 6 6 1 0
BITMAP
38
44
24
44
44
84
ENDCHAR

STARTCHAR MOMA
ENCODING 193
SWIDTH 480 0
DWIDTH 7 0
BBX 6 6 1 0
BITMAP
44
24
24
64
BC
44
ENDCHAR

STARTCHAR YOYAK
ENCODING 194
SWIDTH 480 0
DWIDTH 7 0
BBX 5 6 1 0
BITMAP
48
88
68
88
88
70
ENDCHAR

STARTCHAR RORUA
ENCODING 195
SWIDTH 480 0
DWIDTH 7 0
BBX 5 6 1 0
BITMAP
78
F0
10
10
10
20
ENDCHAR

STARTCHAR RU
ENCODING 196
SWIDTH 480 0
DWIDTH 7 0
BBX 5 8 1 -2
BITMAP
70
88
48
88
88
48
08
08
ENDCHAR

STARTCHAR LOLING
ENCODING 197
SWIDTH 480 0
DWIDTH 7 0
BBX 5 6 1 0
BITMAP
70
88
68
98
88
48
ENDCHAR

STARTCHAR LU
ENCODING 198
SWIDTH 480 0
DWIDTH 7 0
BBX 6 8 1 -2
BITMAP
38
44
24
44
44
84
04
04
ENDCHAR

STARTCHAR WOWAEN
ENCODING 199
SWIDTH 480 0
DWIDTH 7 0
BBX 5 6 1 0
BITMAP
70
88
08
08
08
10
ENDCHAR

STARTCHAR SOSALA
ENCODING 200
SWIDTH 480 0
DWIDTH 7 0
BBX 6 8 1 0
BITMAP
08
08
78
84
84
B4
D4
84
ENDCHAR

STARTCHAR SORUSI
ENCODING 201
SWIDTH 480 0
DWIDTH 7 0
BBX 7 6 0 0
BITMAP
84
44
56
5C
44
38
ENDCHAR

STARTCHAR SOSUA
ENCODING 202
SWIDTH 480 0
DWIDTH 7 0
BBX 5 8 1 0
BITMAP
08
08
70
88
68
98
88
48
ENDCHAR

STARTCHAR HOHIP
ENCODING 203
SWIDTH 480 0
DWIDTH 7 0
BBX 6 6 1 0
BITMAP
88
54
48
54
64
44
ENDCHAR

STARTCHAR LOCHULA
ENCODING 204
SWIDTH 480 0
DWIDTH 7 0
BBX 7 8 0 0
BITMAP
08
14
8E
44
44
54
54
28
ENDCHAR

STARTCHAR OANG
ENCODING 205
SWIDTH 480 0
DWIDTH 7 0
BBX 5 6 1 0
BITMAP
70
88
08
48
88
70
ENDCHAR

STARTCHAR HONOKHUK
ENCODING 206
SWIDTH 480 0
DWIDTH 7 0
BBX 5 8 1 0
BITMAP
08
08
70
F8
08
48
88
70
ENDCHAR

STARTCHAR PAIYANNOI
ENCODING 207
SWIDTH 480 0
DWIDTH 7 0
BBX 5 6 1 0
BITMAP
88
98
68
08
08
10
ENDCHAR

STARTCHAR SARA_A
ENCODING 208
SWIDTH 480 0
DWIDTH 6 0
BBX 4 6 1 0
BITMAP
80
90
60
80
90
60
ENDCHAR

STARTCHAR MAIHUNAKAT
ENCODING 209
SWIDTH 480 0
DWIDTH 0 0
BBX 4 2 -5 7
BITMAP
90
60
ENDCHAR

STARTCHAR SARA_AA
ENCODING 210
SWIDTH 480 0
DWIDTH 7 0
BBX 5 6 1 0
BITMAP
70
88
08
08
08
08
ENDCHAR

STARTCHAR SARA_AM
ENCODING 211
SWIDTH 480 0
DWIDTH 7 0
BBX 6 9 0 0
BITMAP
40
A0
40
38
44
04
04
04
04
ENDCHAR

STARTCHAR SARA_I
ENCODING 212
SWIDTH 480 0
DWIDTH 0 0
BBX 5 1 -6 7
BITMAP
F8
ENDCHAR

STARTCHAR SARA_II
ENCODING 213
SWIDTH 480 0
DWIDTH 0 0
BBX 5 3 -6 7
BITMAP
08
08
F8
ENDCHAR

STARTCHAR SARA_UE
ENCODING 214
SWIDTH 480 0
DWIDTH 0 0
BBX 5 3 -6 7
BITMAP
10
28
F0
ENDCHAR

STARTCHAR SARA_UEE
ENCODING 215
SWIDTH 480 0
DWIDTH 0 0
BBX 5 3 -6 7
BITMAP
28
28
F8
ENDCHAR

STARTCHAR SARA_U
ENCODING 216
SWIDTH 480 0
DWIDTH 0 0
BBX 2 2 -2 -2
BITMAP
C0
40
ENDCHAR

STARTCHAR SARA_UU
ENCODING 217
SWIDTH 480 0
DWIDTH 0 0
BBX 3 2 -3 -2
BITMAP
A0
E0
ENDCHAR

STARTCHAR PHINTHU
ENCODING 218
SWIDTH 480 0
DWIDTH 0 0
BBX 2 1 -3 -2
BITMAP
C0
ENDCHAR

STARTCHAR Word_Separate
ENCODING 220
SWIDTH 480 0
DWIDTH 0 0
BBX 7 14 0 -2
BITMAP
00
00
00
00
00
00
00
00
00
00
00
00
00
00
ENDCHAR

STARTCHAR BAHT
ENCODING 223
SWIDTH 480 0
DWIDTH 7 0
BBX 5 9 1 -1
BITMAP
10
F0
98
A8
F0
A8
C8
F0
40
ENDCHAR

STARTCHAR SARA_E
ENCODING 224
SWIDTH 480 0
DWIDTH 7 0
BBX 2 6 2 0
BITMAP
80
80
80
80
80
40
ENDCHAR

STARTCHAR SARA_AE
ENCODING 225
SWIDTH 480 0
DWIDTH 7 0
BBX 5 6 1 0
BITMAP
90
90
90
90
90
48
ENDCHAR

STARTCHAR SARA_O
ENCODING 226
SWIDTH 480 0
DWIDTH 7 0
BBX 5 10 1 0
BITMAP
78
80
E0
10
10
10
10
10
10
08
ENDCHAR

STARTCHAR MAIMUAN
ENCODING 227
SWIDTH 480 0
DWIDTH 7 0
BBX 5 10 1 0
BITMAP
60
90
90
50
10
10
10
10
10
08
ENDCHAR

STARTCHAR MAIMALAI
ENCODING 228
SWIDTH 480 0
DWIDTH 7 0
BBX 5 10 1 0
BITMAP
90
B0
50
10
10
10
10
10
10
08
ENDCHAR

STARTCHAR LAKKHANGYAO
ENCODING 229
SWIDTH 480 0
DWIDTH 7 0
BBX 5 8 1 -2
BITMAP
70
88
08
08
08
08
08
08
ENDCHAR

STARTCHAR MAIYAMOK
ENCODING 230
SWIDTH 480 0
DWIDTH 7 0
BBX 5 8 1 -2
BITMAP
50
A8
88
48
08
08
08
08
ENDCHAR

STARTCHAR MAITAIKHU
ENCODING 231
SWIDTH 480 0
DWIDTH 0 0
BBX 5 4 -6 8
BITMAP
08
70
A0
D8
ENDCHAR

STARTCHAR MAIEK
ENCODING 232
SWIDTH 480 0
DWIDTH 0 0
BBX 1 2 -3 10
BITMAP
80
80
ENDCHAR

STARTCHAR MAITHO
ENCODING 233
SWIDTH 480 0
DWIDTH 0 0
BBX 5 2 -5 10
BITMAP
C8
70
ENDCHAR

STARTCHAR MAITRI
ENCODING 234
SWIDTH 480 0
DWIDTH 0 0
BBX 6 2 -6 10
BITMAP
50
AC
ENDCHAR

STARTCHAR MAICHATTAWA
ENCODING 235
SWIDTH 480 0
DWIDTH 0 0
BBX 3 3 -5 9
BITMAP
40
E0
40
ENDCHAR

STARTCHAR THANTHAKHAT
ENCODING 236
SWIDTH 480 0
DWIDTH 0 0
BBX 4 2 -4 9
BITMAP
70
80
ENDCHAR

STARTCHAR NIKHAHIT
ENCODING 237
SWIDTH 480 0
DWIDTH 0 0
BBX 3 3 -5 7
BITMAP
40
A0
40
ENDCHAR

STARTCHAR YAMAKKAN
ENCODING 238
SWIDTH 480 0
DWIDTH 0 0
BBX 5 3 -5 7
BITMAP
38
60
C0
ENDCHAR

STARTCHAR FONGMAN
ENCODING 239
SWIDTH 480 0
DWIDTH 7 0
BBX 5 6 1 0
BITMAP
70
88
A8
A8
88
70
ENDCHAR

STARTCHAR THAIZERO
ENCODING 240
SWIDTH 480 0
DWIDTH 7 0
BBX 5 6 1 0
BITMAP
70
88
88
88
88
70
ENDCHAR

STARTCHAR THAIONE
ENCODING 241
SWIDTH 480 0
DWIDTH 7 0
BBX 5 6 1 0
BITMAP
70
88
A8
48
10
20
ENDCHAR

STARTCHAR THAITWO
ENCODING 242
SWIDTH 480 0
DWIDTH 7 0
BBX 6 6 1 0
BITMAP
A8
D4
C4
A4
84
78
ENDCHAR

STARTCHAR THAITHREE
ENCODING 243
SWIDTH 480 0
DWIDTH 7 0
BBX 5 6 1 0
BITMAP
50
A8
A8
88
88
48
ENDCHAR

STARTCHAR THAIFOUR
ENCODING 244
SWIDTH 480 0
DWIDTH 7 0
BBX 5 7 1 0
BITMAP
08
70
80
90
A0
90
68
ENDCHAR

STARTCHAR THAIFIVE
ENCODING 245
SWIDTH 480 0
DWIDTH 7 0
BBX 5 8 1 0
BITMAP
20
58
70
80
90
A0
90
68
ENDCHAR

STARTCHAR THAISIX
ENCODING 246
SWIDTH 480 0
DWIDTH 7 0
BBX 5 6 1 0
BITMAP
90
A8
48
08
50
20
ENDCHAR

STARTCHAR THAISEVEN
ENCODING 247
SWIDTH 480 0
DWIDTH 7 0
BBX 7 6 0 0
BITMAP
52
AA
AA
8A
8C
48
ENDCHAR

STARTCHAR THAIEIGHT
ENCODING 248
SWIDTH 480 0
DWIDTH 7 0
BBX 6 7 1 0
BITMAP
04
78
80
90
88
A8
50
ENDCHAR

STARTCHAR THAININE
ENCODING 249
SWIDTH 480 0
DWIDTH 7 0
BBX 6 7 1 0
BITMAP
04
14
68
B0
90
88
60
ENDCHAR

STARTCHAR ANGKHANKHU
ENCODING 250
SWIDTH 480 0
DWIDTH 7 0
BBX 5 6 1 0
BITMAP
A8
68
28
28
28
48
ENDCHAR

STARTCHAR KHOMUT
ENCODING 251
SWIDTH 480 0
DWIDTH 7 0
BBX 7 6 0 0
BITMAP
40
80
AA
AC
B0
40
ENDCHAR
ENDFONT
